<svg id="icons" viewBox="0 0 340 340" xmlns="http://www.w3.org/2000/svg"><path d="m249.057 37.5s-3.8-18.768 13.84-19.324c0 0 17.825-2.017 30.444 9.662 0 0 12.306-1.639 16.331 4.915 4.268 6.949 1.958 15.3-5.938 19.012z" fill="#383a3d"/><path d="m283.6 45.732a4 4 0 0 1 -2.166-7.365c6.2-3.983 7.991-11.347 8.009-11.421a4 4 0 0 1 7.8 1.773c-.1.429-2.468 10.585-11.486 16.378a3.979 3.979 0 0 1 -2.157.635z" fill="#e9ebfc"/><path d="m260.356 151.292s-42.665 55.906-93.274 85.33l20.891 23.245 69.735-62.379z" fill="#363b42"/><path d="m150.264 240.462 16.662-13.943 44.891 55.581a8.792 8.792 0 0 1 -1.075 12.165l-3.64 3.161a8.791 8.791 0 0 1 -12.336-.795 713.535 713.535 0 0 1 -44.502-56.169z" fill="#d14253"/><path d="m189.234 248.424-20.8 17.945a8.435 8.435 0 0 0 -.838 11.6l7.327 8.9a8.436 8.436 0 0 0 12.076.98l20.264-16.844z" fill="#ffc4b6"/><path d="m275.343 33.709q-.6-.136-1.212-.258c-18.263-3.6-36.578 7.119-41.575 25.05q-.614 2.2-1.056 4.649l-1.121 12.15a17.561 17.561 0 0 1 -2.8 6.409 8.908 8.908 0 0 0 -.11 9.872l7.584 11.935 3.556 10.251a7.987 7.987 0 0 0 10.657 4.739l15.125-6.394 3.027 30.7 25.563-21.92-.56-25.975s9.745-15.666 6.785-34.972a31.491 31.491 0 0 0 -23.863-26.236z" fill="#ffc4b6"/><path d="m291.237 117.022c-.886.45-1.823.948-2.8 1.5a75.489 75.489 0 0 0 -38.058 61.458l-3.528 59.685h60.461l9.3-12.974a19.912 19.912 0 0 0 3.689-12.846l-3.351-53.328a19.084 19.084 0 0 0 -5.46-12.206l-11.729-11.889v-14.16a5.869 5.869 0 0 0 -8.524-5.24z" fill="#535f70"/><path d="m247.315 231.813-.464 7.849h41.591c3.406-6.128 5.858-11.083 7.407-14.386a44.778 44.778 0 0 0 3.067-8.872c3.567-15.329 5.955-28.88 7.506-39.185a5.951 5.951 0 0 0 -10.485-4.664z" fill="#363b42"/><path d="m307.312 239.662v17.525h-63.148l2.687-17.525z" fill="#e9ebfc"/><path d="m246.851 239.662-2.687 17.525h33.712c4.213-6.48 7.724-12.412 10.566-17.525z" fill="#acb9d4"/><path d="m307.312 257.187h-63.148s-9.649 17.813-10.764 46.765l-1.484 26.048h88.426s.758-62.421-13.03-72.813z" fill="#535f70"/><path d="m189.234 248.424-4.657 4.018a119.271 119.271 0 0 0 3.666 15.356 11.794 11.794 0 0 1 -3.386 12.27l-8.8 7.936a8.434 8.434 0 0 0 10.943-.151l20.264-16.844z" fill="#ea8b7f"/><path d="m277.876 257.187h-33.712s-9.649 17.813-10.764 46.765l-.421 7.386a301.737 301.737 0 0 0 44.897-54.151z" fill="#363b42"/><path d="m170.227 264.823-3.6 3.106a5.678 5.678 0 0 1 -8.147-.758l-12.59-15.78a5.676 5.676 0 0 1 .768-7.872l3.607-3.057a9.6 9.6 0 0 1 13.824 1.485l7.487 9.77a9.6 9.6 0 0 1 -1.349 13.106z" fill="#ffc4b6"/><path d="m172.208 222.1-31.608 26.447a6.324 6.324 0 0 1 -8.831-.7l-1.109-1.276a6.324 6.324 0 0 1 .7-8.989l31.506-26.5a6.323 6.323 0 0 1 8.746.582l1.209 1.328a6.324 6.324 0 0 1 -.613 9.108z" fill="#ffc271"/><path d="m154.816 217.855s-74.216-91.515-126.389-207.855a27.782 27.782 0 0 0 -4.964 6.913 33.99 33.99 0 0 0 -.194 30.9c12.332 24.979 56.2 110.1 115.813 183.274z" fill="#e9ebfc"/><path d="m31.069 37.844a35.14 35.14 0 0 0 3.809 11.656c10.844 20.7 63.43 118.121 112.188 174.873l7.75-6.519s-69.349-85.514-121.1-196.3c-1.845 3.312-3.655 8.674-2.647 16.29z" fill="#acb9d4"/><path d="m160.2 232.147 12.008-10.047a6.325 6.325 0 0 0 .617-9.109l-1.209-1.327a6.323 6.323 0 0 0 -8.746-.581l-13.082 11 5.285-1.173a4.734 4.734 0 0 1 4.553 1.466l1.489 1.665a4.735 4.735 0 0 1 .575 5.512z" fill="#ef9354"/><path d="m148.654 209.988-24.026 2.743q7.057 9.261 14.454 18.358l15.734-13.234s-2.216-2.74-6.162-7.867z" fill="#acb9d4"/><path d="m244 80.851a3.32 3.32 0 0 1 -1.119-6.445l2.591-.928a3.32 3.32 0 0 1 2.237 6.251l-2.59.927a3.322 3.322 0 0 1 -1.119.195z" fill="#ea8b7f"/><path d="m264.389 112.109 1.369 13.882 9.962-16.1a1.3 1.3 0 0 0 -1.62-1.891z" fill="#ea8b7f"/><path d="m310.329 61.128c-1.435-5.233-3.291-10.844-8.62-15.408a7.4 7.4 0 0 0 -11.075 1.766c-3 4.86-8.67 11.869-19.066 19.037a10.424 10.424 0 0 0 -3.943 12.108c.345.955.734 1.981 1.168 3.065a1.188 1.188 0 0 0 2.124.163 14.032 14.032 0 0 1 2.948-3.435 7.41 7.41 0 0 1 11.9 3.689 14.51 14.51 0 0 1 .36 4.58 9.4 9.4 0 0 1 -1.01 3.676 13.3 13.3 0 0 1 -2.751 3.643 8.022 8.022 0 0 0 -2.5 4.4l-.068.371a6.089 6.089 0 0 0 1.05 4.732q.548.752 1.12 1.5a3.868 3.868 0 0 0 4.808 1.11 60.521 60.521 0 0 0 13.351-9.085 35.714 35.714 0 0 0 10.204-35.912z" fill="#383a3d"/><path d="m250.342 180.61-1.362 23.043 10.122-8.087 12.526-31.836a3.064 3.064 0 0 0 -5.045-3.26 154.628 154.628 0 0 0 -16.241 20.14z" fill="#363b42"/><path d="m292.418 137.993a11.366 11.366 0 0 1 17.114 9.832c.008 6.941-1.163 16.814-5.241 30.2l-10.978 33.017a69.464 69.464 0 0 1 -12.891 22.89c-11.142 13.189-29.748 38.312-55.566 60.729a1.5 1.5 0 0 1 -2.033-.061c-4.533-4.467-23.5-23.923-33.589-46.171 0 0 30.653-24.4 52-43.9a38.994 38.994 0 0 0 8.526-11.224c6.646-13.2 23.861-44.447 42.658-55.312z" fill="#535f70"/><path d="m209.144 232.2c-2.218 1.84-4.325 3.576-6.293 5.189 5.614 10.021 17.8 29.789 34.441 45.77q2.9-2.839 5.644-5.674c-16.536-15.874-28.755-36.191-33.792-45.285z" fill="#363b42"/><path d="m171.575 251.717-3.272-4.27a11.189 11.189 0 0 1 -2.629 7.98 98.845 98.845 0 0 1 -9.607 8.721l2.412 3.023a5.678 5.678 0 0 0 8.147.758l3.6-3.106a9.6 9.6 0 0 0 1.349-13.106z" fill="#ea8b7f"/><path d="m260.784 44.722a3 3 0 0 1 -.276-5.987l.4-.034a3 3 0 1 1 .452 5.983l-.292.024c-.096.009-.19.014-.284.014z" fill="#ffe1dc"/><path d="m246.11 53.085a3 3 0 0 1 -2.44-4.74 19.067 19.067 0 0 1 6.218-5.2 3 3 0 0 1 2.848 5.282 13.7 13.7 0 0 0 -4.18 3.4 3 3 0 0 1 -2.446 1.258z" fill="#ffe1dc"/><path d="m272.851 91.583c.092-2.634.684-6.856 3.263-10.021a3.36 3.36 0 0 1 4.364-.751l.051.033a6.472 6.472 0 0 1 .808.638.454.454 0 0 1 -.4.776c-1.387-.276-3.568-.144-4.549 2.946a.875.875 0 0 0 .784 1.145 2.6 2.6 0 0 1 2.586 2.037 4.014 4.014 0 0 1 -.5 3.12 8.165 8.165 0 0 1 -2.157 2.4 2.708 2.708 0 0 1 -4.25-2.323z" fill="#ea8b7f"/></svg>