<svg id="icon" viewBox="0 0 340 340" xmlns="http://www.w3.org/2000/svg"><path d="m102.479 19.35s-20.436-7.282-35 5.168c0 0-21.9 15.574-11.014 45.053a20.081 20.081 0 0 1 1.3 7.209l-.112 8.76a3.3 3.3 0 0 0 2.8 3.3l7.983 1.228a3.759 3.759 0 0 1 2.306 1.3l8.936 10.606a7.981 7.981 0 0 0 11.62.625l6.486-6.2 14.516 17.378 18.362-19.966-13.62-18.791 2.349-28.892z" fill="#ffd0b0"/><path d="m134.413 42.91s-5.3-21.211-25.2-27.874a7.459 7.459 0 0 0 -2.77-.4 7.379 7.379 0 0 0 -6.964 8.564c.993 5.567.424 14.408-8.064 24.736a9.49 9.49 0 0 0 .131 12.334l1.626 1.841a1.131 1.131 0 0 0 1.625.072l3.537-3.351a8.91 8.91 0 0 1 11.767-.576 8.7 8.7 0 0 1 1 12.473 34.56 34.56 0 0 1 -3.91 3.729 2.23 2.23 0 0 0 -.283 3.208 10.28 10.28 0 0 0 14.775.7c7.509-7.147 16.799-19.666 12.73-35.456z" fill="#373d4c"/><path d="m70.528 70.352a2.714 2.714 0 0 1 -1.848-4.7l1.857-1.724a2.714 2.714 0 1 1 3.694 3.972l-1.857 1.725a2.7 2.7 0 0 1 -1.846.727z" fill="#373d4c"/><path d="m104.256 95.256 1.118-5.626a.9.9 0 0 0 -1.426-.881l-12.762 9.915a3.923 3.923 0 0 1 -3.068.831 3.446 3.446 0 0 1 -1.963-1.029l-10.19-12.68a3.58 3.58 0 0 0 -2.236-1.3l-6.587-1.035a3.5 3.5 0 0 1 -2.957-3.5l.051-4.793a21.587 21.587 0 0 0 -1.585-8.454c-6.909-16.745-3.7-29.822.367-38-5.754 6.456-14.168 20.266-6.545 40.887a19.924 19.924 0 0 1 1.29 7.164l-.112 8.785a3.3 3.3 0 0 0 2.8 3.3l7.983 1.228a3.759 3.759 0 0 1 2.306 1.3l8.936 10.606a7.981 7.981 0 0 0 11.62.625l6.486-6.2 14.518 17.378 18.362-19.966-3.241-4.469-17.9 13.945-3.97-3.858a4.577 4.577 0 0 1 -1.295-4.173z" fill="#ea8f8b"/><path d="m83.9 236.656s-5.346 40.679-6.822 93.344h25.951v-93.344z" fill="#38485e"/><path d="m96.999 230.246-2.037 49.27v50.484h68.971v-99.754z" fill="#718299"/><path d="m94.962 279.516 68.971-6.835v-42.435h-68.971z" fill="#38485e"/><path d="m147.806 88.27-5.731-8.935a3.376 3.376 0 0 0 -5.17-.631c-10.864 10.34-48.163 48.835-59.827 100.1z" fill="#38485e"/><path d="m147.806 88.27s35.09 43.561 27.83 126.246l-9.79 10.89-80.155 4.84-14.829-18.7a12.181 12.181 0 0 1 -2.174-10.96c4.68-16.123 22.063-61.386 79.118-112.316z" fill="#718299"/><g fill="#38485e"><path d="m106.6 175.491c-8.143-3.741-13.076-14.982-9.808-23.327a126.733 126.733 0 0 1 9.987-20.648c-25.221 31.536-34.8 57.733-38.087 69.071a12.16 12.16 0 0 0 1.808 10.44l64.909-23.073c-7.199-2.675-19.377-8.129-28.809-12.463z"/><path d="m176.607 189.834-22.81-2.49-13.158-42.986s-1.857-9.944-.669-18.471a1.935 1.935 0 0 0 -3.552-1.3 29.928 29.928 0 0 0 -4.212 21.5 16.977 16.977 0 0 0 .554 2.208c1.428 4.546 8.969 21.845 7.942 35.974a4.109 4.109 0 0 1 -4.686 3.785c-9.717-1.469-20.845-4.388-32.987-6.9l-16.6 18.541-16.135-4.195c-.652 1.922-1.182 3.626-1.606 5.087a12.178 12.178 0 0 0 2.175 10.96l14.828 18.7 80.155-4.84.692-.769 9.1-10.121c.762-8.661 1.049-16.886.969-24.683z"/><path d="m47.971 245.471a8.249 8.249 0 0 0 9.887 5.11c25.1-6.768 111.235-26.945 191.092-9.728a9.258 9.258 0 0 0 10.928-6.905 9.272 9.272 0 0 0 -7.213-11.273c-25.876-5.084-102.591-15.679-199.249 12a8.25 8.25 0 0 0 -5.445 10.796z"/></g><path d="m50.87 172.827c32.858 10 141.111 47.535 220.937 128.963a8.835 8.835 0 0 1 .49 11.811 8.818 8.818 0 0 1 -12.958.695c-21.362-20.882-93.619-84.518-214.53-121.726a10.315 10.315 0 0 1 -6.794-12.929 10.32 10.32 0 0 1 12.855-6.814z" fill="#d6858b"/><path d="m50.87 172.827a10.32 10.32 0 0 0 -12.855 6.814 10.315 10.315 0 0 0 6.794 12.929 580.127 580.127 0 0 1 149.972 70.51 29.3 29.3 0 0 0 11.71-15.576c-65.105-44.588-131.191-67.247-155.621-74.677z" fill="#ab575b"/><path d="m116.9 187.957-16.2-7.946a11.824 11.824 0 0 0 -11.43.561l-5.376 3.59s6.516 5.335 7.91 16a17.953 17.953 0 0 0 5.379 10.794 33.877 33.877 0 0 0 16.853 8.773z" fill="#ffd0b0"/><circle cx="255.391" cy="57.064" fill="#f66" r="47.064"/><path d="m91.806 200.158a17.953 17.953 0 0 0 5.379 10.794 33.877 33.877 0 0 0 16.853 8.773l.873-9.695a26.247 26.247 0 0 1 -19.041-14.549c-4.849-9.846-11.97-11.319-11.97-11.319s6.512 5.338 7.906 15.996z" fill="#ea8f8b"/><path d="m154.964 105.533a56.29 56.29 0 0 0 -15.1 16.4 26.639 26.639 0 0 0 -1.864 24.242c4.258 10.2 10.037 27.043 10.282 43.79 0 0 .945 8.158-1.046 12.874l-30.336-14.882s-7.2 27.706-6.891 70.579a2.208 2.208 0 0 0 2.129 2.186l52.475 1.775a13.74 13.74 0 0 0 9.1-3.029c5.107-4.123 13.065-12.1 15.184-23.034a13.849 13.849 0 0 0 .194-1.449c.735-8.585 6.25-87.241-34.127-129.452z" fill="#718299"/><path d="m148.276 189.965a63.884 63.884 0 0 1 -1.04 12.874l13.8 6.769a1.721 1.721 0 0 0 2.134-2.582c-3.434-4.514-9.37-7.762-14.894-17.061z" fill="#38485e"/></svg>