<svg xmlns="http://www.w3.org/2000/svg" version="1.1" xmlns:xlink="http://www.w3.org/1999/xlink" width="512" height="512" x="0" y="0" viewBox="0 0 96 96" style="enable-background:new 0 0 512 512" xml:space="preserve" class=""><g><path fill="#d898db" d="M48.363 73.889a.514.514 0 0 0-.707 0l-1.73 1.731a.5.5 0 0 0 0 .707l1.73 1.73a.498.498 0 0 0 .708 0l1.731-1.73a.5.5 0 0 0 0-.708z" opacity="1" data-original="#f2c53f" class=""></path><path fill="#8e0d53" d="M48.01 78.704a.991.991 0 0 1-.707-.293l-1.73-1.73a1 1 0 0 1 0-1.414l1.73-1.731a1.014 1.014 0 0 1 1.414 0l1.731 1.731a.996.996 0 0 1 0 1.414l-1.731 1.73a.995.995 0 0 1-.707.293zm.008-4.453-1.738 1.723 1.73 1.73 1.731-1.73z" opacity="1" data-original="#581018" class=""></path><path fill="#d898db" d="m29.43 28.017-.78 2.91c-.06.22-.26.37-.48.37-.05 0-.09 0-.13-.01l-2.92-.78a.542.542 0 0 1-.3-.24.5.5 0 0 1-.05-.38l.78-2.91a.51.51 0 0 1 .61-.36l2.92.79a.5.5 0 0 1 .35.61z" opacity="1" data-original="#f2c53f" class=""></path><path fill="#8e0d53" d="M28.17 31.797c-.066 0-.15 0-.248-.024l-2.931-.782a1.061 1.061 0 0 1-.604-.473.975.975 0 0 1-.105-.74l.784-2.93c.086-.279.254-.489.477-.61a.997.997 0 0 1 .73-.107l2.938.795c.525.142.841.688.703 1.219l-.001.003-.779 2.91a1.006 1.006 0 0 1-.964.739zM26.029 27.1l-.776 2.918 2.916.786.777-2.912v-.004zm3.401.918h.01z" opacity="1" data-original="#581018" class=""></path><path fill="#f8046b" d="M51.979 52.078a.508.508 0 0 0-.519.036L48 54.56l-3.461-2.446a.502.502 0 0 0-.79.408v6.69a.5.5 0 0 0 .5.5h7.5a.5.5 0 0 0 .5-.5v-6.69a.497.497 0 0 0-.27-.444z" opacity="1" data-original="#d91e34" class=""></path><path fill="#8e0d53" d="M51.75 60.213h-7.5a1 1 0 0 1-1-1v-6.69a.998.998 0 0 1 1.575-.819L48 53.948l3.172-2.242c.311-.215.705-.24 1.034-.073l.003.001a.998.998 0 0 1 .541.889v6.69a1 1 0 0 1-1 1zm-7.5-7.691v6.69h7.5v-6.689l-.003.001-3.458 2.444a.499.499 0 0 1-.578 0z" opacity="1" data-original="#581018" class=""></path><path fill="#f8046b" d="M51.75 61.772h-7.5a.5.5 0 0 0-.5.5v15.54c0 2.344 1.906 4.25 4.25 4.25s4.25-1.906 4.25-4.25v-15.54a.5.5 0 0 0-.5-.5z" opacity="1" data-original="#d91e34" class=""></path><path fill="#8e0d53" d="M48 82.562a4.756 4.756 0 0 1-4.75-4.75v-15.54a1 1 0 0 1 1-1h7.5a1 1 0 0 1 1 1v15.54c0 2.62-2.131 4.75-4.75 4.75zm-3.75-20.29v15.54c0 2.067 1.683 3.75 3.75 3.75s3.75-1.683 3.75-3.75v-15.54z" opacity="1" data-original="#581018" class=""></path><path fill="#f8046b" stroke="#581018" stroke-linecap="round" stroke-linejoin="round" stroke-miterlimit="10" d="M82.41 31.758c-7.9-11.16-20.76-17.82-34.41-17.82s-26.51 6.66-34.41 17.82c-.07.11-.11.24-.08.38.02.13.09.24.2.32l9.28 6.55c.3-.2.6-.4.9-.59 1.08-.71 2.19-1.36 3.32-1.95.28-.15.56-.3.84-.43 1.91-.97 3.89-1.8 5.93-2.46.31-.12.64-.22.96-.32 1.94-.6 3.92-1.06 5.94-1.37.28-.06.57-.1.87-.14a44.638 44.638 0 0 1 12.5 0c.29.04.58.08.87.14 2.02.31 4 .77 5.94 1.37.33.1.65.2.96.31 2.04.67 4.02 1.49 5.94 2.46.28.14.56.28.84.43 1.13.6 2.24 1.25 3.32 1.95.3.2.6.4.89.6l9.28-6.55a.48.48 0 0 0 .2-.32.503.503 0 0 0-.08-.38zm-52.98-3.62-.78 2.91c-.06.22-.26.37-.48.37-.05 0-.09 0-.13-.01l-2.92-.78a.542.542 0 0 1-.3-.24.5.5 0 0 1-.05-.38l.78-2.91a.51.51 0 0 1 .61-.36l2.92.79a.5.5 0 0 1 .35.61zm9.54-3.22-1.51 2.61c-.07.11-.17.2-.3.23-.05.01-.09.02-.13.02a.43.43 0 0 1-.25-.07l-2.61-1.51a.497.497 0 0 1-.19-.68l1.51-2.61c.07-.12.18-.2.3-.24.13-.03.27-.01.38.06l2.62 1.5c.24.14.32.45.18.69zm11.53-.68-2.14 2.13c-.09.1-.22.15-.35.15s-.26-.05-.35-.15l-2.14-2.13a.513.513 0 0 1 0-.71l2.14-2.13c.19-.2.51-.2.7 0l2.14 2.13c.19.2.19.51 0 .71zm11.33 2.34-2.61 1.51a.43.43 0 0 1-.25.07c-.04 0-.08-.01-.13-.02a.495.495 0 0 1-.3-.23l-1.51-2.61a.505.505 0 0 1 .18-.69l2.62-1.5a.46.46 0 0 1 .38-.05c.12.03.23.11.3.23l1.51 2.61c.14.24.05.55-.19.68zm9.35 4.19c-.07.12-.18.2-.3.24l-2.92.78c-.04.01-.08.01-.13.01a.49.49 0 0 1-.48-.37l-.78-2.91a.5.5 0 0 1 .35-.61l2.92-.78c.13-.04.26-.02.38.05.11.06.19.17.23.3l.78 2.91a.5.5 0 0 1-.05.38z" opacity="1" data-original="#d91e34" class=""></path><path fill="#d898db" d="m50.473 24.024-2.14 2.13c-.09.1-.22.15-.35.15s-.26-.05-.35-.15l-2.14-2.13a.513.513 0 0 1 0-.71l2.14-2.13c.19-.2.51-.2.7 0l2.14 2.13c.19.2.19.51 0 .71z" opacity="1" data-original="#f2c53f" class=""></path><path fill="#8e0d53" d="M47.983 26.804a.974.974 0 0 1-.722-.315l-2.121-2.11a1.019 1.019 0 0 1-.011-1.408l2.15-2.141a.977.977 0 0 1 .703-.296h.001a.988.988 0 0 1 .712.307l2.13 2.119c.382.402.382 1.017.011 1.408l-.011.011-2.141 2.13a.948.948 0 0 1-.701.295zm-.003-5.266-2.135 2.13 2.14 2.131 2.127-2.121c.005-.007.005-.014-.002-.021zm2.494 2.485h.01z" opacity="1" data-original="#581018" class=""></path><path fill="#d898db" d="m38.943 24.704-1.51 2.61c-.07.11-.17.2-.3.23-.05.01-.09.02-.13.02a.43.43 0 0 1-.25-.07l-2.61-1.51a.497.497 0 0 1-.19-.68l1.51-2.61c.07-.12.18-.2.3-.24.13-.03.27-.01.38.06l2.62 1.5c.24.14.32.45.18.69z" opacity="1" data-original="#f2c53f" class=""></path><path fill="#8e0d53" d="M37.003 28.063a.917.917 0 0 1-.543-.165l-2.566-1.482a1.001 1.001 0 0 1-.373-1.363l1.51-2.609c.128-.22.332-.384.575-.465.312-.069.589-.026.807.113l2.6 1.488c.48.28.643.896.364 1.373l-1.51 2.61c-.161.255-.372.41-.621.468a1.193 1.193 0 0 1-.243.032zm-1.107-5.116-1.51 2.606 2.617 1.507 1.508-2.607.001-.002c.001-.002-.001-.006-.001-.007z" opacity="1" data-original="#581018" class=""></path><path fill="#d898db" d="m61.83 26.337-2.61 1.51a.43.43 0 0 1-.25.07c-.04 0-.08-.01-.13-.02a.495.495 0 0 1-.3-.23l-1.51-2.61a.505.505 0 0 1 .18-.69l2.62-1.5a.46.46 0 0 1 .38-.05c.12.03.23.11.3.23l1.51 2.61c.14.24.05.55-.19.68z" opacity="1" data-original="#f2c53f" class=""></path><path fill="#8e0d53" d="M58.97 28.417c-.034 0-.167-.018-.201-.024a1.002 1.002 0 0 1-.649-.455l-1.521-2.631c-.135-.229-.172-.501-.104-.761s.233-.477.465-.611l2.623-1.501a.933.933 0 0 1 .775-.095.974.974 0 0 1 .585.458l1.51 2.609a.98.98 0 0 1 .098.766.997.997 0 0 1-.475.601l-2.605 1.507a.888.888 0 0 1-.501.137zm1.107-5.12-2.619 1.504 1.515 2.616 2.607-1.513.005-.003z" opacity="1" data-original="#581018" class=""></path><path fill="#d898db" d="M71.18 30.527c-.07.12-.18.2-.3.24l-2.92.78c-.04.01-.08.01-.13.01a.49.49 0 0 1-.48-.37l-.78-2.91a.5.5 0 0 1 .35-.61l2.92-.78c.13-.04.26-.02.38.05.11.06.19.17.23.3l.78 2.91a.5.5 0 0 1-.05.38z" opacity="1" data-original="#f2c53f" class=""></path><path fill="#8e0d53" d="M67.83 32.057a.984.984 0 0 1-.964-.743l-.779-2.908a1.002 1.002 0 0 1 .704-1.222l2.92-.78a.952.952 0 0 1 .759.101.993.993 0 0 1 .458.585l.786 2.928c.065.29.026.557-.106.77a1.048 1.048 0 0 1-.569.455l-2.949.789c-.11.025-.194.025-.26.025zm2.137-4.691-2.918.784.784 2.907 2.912-.772zm.792 2.89a.116.116 0 0 0-.013.029l.005-.002c.004-.007.004-.02.008-.027zM71.18 38.192 54.7 49.832l13.41-13.41c-.31-.16-.63-.32-.94-.48l-16.62 16.63 10.93-18.94c-.32-.11-.65-.21-.97-.3l-11.05 19.14 5.47-20.43c-.33-.05-.66-.1-.99-.14l-5.44 20.3v-20.7c-.17-.01-.33-.01-.5-.01s-.33 0-.5.01v20.7l-5.44-20.3c-.33.04-.66.08-.99.14l5.47 20.43-11.05-19.15c-.33.1-.66.2-.98.31l10.94 18.94-16.62-16.63c-.32.16-.63.32-.94.48l13.41 13.41-16.48-11.63c-.31.19-.6.38-.9.59l21.55 15.21 1.472 1.472a1.495 1.495 0 0 0 2.116 0l1.472-1.472 21.55-15.21c-.3-.21-.59-.41-.9-.6zm-22.7 17.93c.01-.03.01-.05.01-.08l.02-.02z" opacity="1" data-original="#581018" class=""></path><path fill="#8e0d53" d="m48.51 56.022-.03.1c.01-.03.01-.05.01-.08z" opacity="1" data-original="#581018" class=""></path><path fill="#8e0d53" d="m48.51 56.022-.03.1c.01-.03.01-.05.01-.08zM40.49 68.633a.5.5 0 0 1-.5-.5v-7.392a.5.5 0 0 1 1 0v7.392c0 .277-.223.5-.5.5zM55.53 68.633a.5.5 0 0 1-.5-.5v-7.392a.5.5 0 0 1 1 0v7.392c0 .277-.223.5-.5.5z" opacity="1" data-original="#581018" class=""></path><path fill="#d898db" d="M54 58.713H42.02c-1.119 0-2.029.91-2.029 2.029s.91 2.03 2.029 2.03H54c1.119 0 2.03-.911 2.03-2.03s-.911-2.029-2.03-2.029z" opacity="1" data-original="#f2c53f" class=""></path><path fill="#8e0d53" d="M54 63.272H42.02c-1.395 0-2.529-1.135-2.529-2.53s1.135-2.529 2.529-2.529H54a2.532 2.532 0 0 1 2.53 2.529 2.532 2.532 0 0 1-2.53 2.53zm-11.98-4.059c-.843 0-1.529.687-1.529 1.529 0 .844.687 1.53 1.529 1.53H54c.844 0 1.53-.687 1.53-1.53s-.687-1.529-1.53-1.529z" opacity="1" data-original="#581018" class=""></path><path fill="#d898db" d="M40.844 67.78a.5.5 0 0 0-.707 0l-1.758 1.758a.5.5 0 0 0 0 .707l1.758 1.758a.498.498 0 0 0 .708 0l1.758-1.758a.5.5 0 0 0 0-.707z" opacity="1" data-original="#f2c53f" class=""></path><path fill="#8e0d53" d="M40.49 72.649a.991.991 0 0 1-.707-.293l-1.758-1.758a1 1 0 0 1 0-1.414l1.758-1.758a.999.999 0 0 1 1.414 0l1.758 1.758a1 1 0 0 1 0 1.414l-1.758 1.758a.991.991 0 0 1-.707.293zm0-4.515-1.758 1.758 1.758 1.758 1.758-1.758zm.354-.354-.354.354h.001z" opacity="1" data-original="#581018" class=""></path><path fill="#d898db" d="M55.884 67.78a.5.5 0 0 0-.707 0l-1.758 1.758a.5.5 0 0 0 0 .707l1.758 1.758a.498.498 0 0 0 .708 0l1.758-1.758a.5.5 0 0 0 0-.707z" opacity="1" data-original="#f2c53f" class=""></path><path fill="#8e0d53" d="M55.53 72.649a.991.991 0 0 1-.707-.293l-1.758-1.758a1 1 0 0 1 0-1.414l1.758-1.758a.999.999 0 0 1 1.414 0l1.758 1.758a1 1 0 0 1 0 1.414l-1.758 1.758a.991.991 0 0 1-.707.293zm0-4.515-1.758 1.758 1.758 1.758 1.758-1.758zm.354-.354-.354.354h.001z" opacity="1" data-original="#581018" class=""></path></g></svg>